<svg width="1584" height="396" viewBox="0 0 1584 396" fill="none" xmlns="http://www.w3.org/2000/svg">
<rect width="1584" height="396" fill="#363A4F"/>
<path d="M769.67 181H869.34V254.67H769.67V181Z" fill="white"/>
<path d="M748.5 197.91V260.41H873.5V135.41H748.5V197.91ZM849.23 192.91C852.224 193.605 854.945 195.171 857.05 197.41C858.209 198.616 859.216 199.96 860.05 201.41C860.05 201.57 854.65 205.22 851.36 207.26C851.24 207.34 850.76 206.82 850.23 206.03C849.629 204.994 848.776 204.126 847.75 203.509C846.723 202.892 845.557 202.545 844.36 202.5C840.57 202.24 838.13 204.23 838.15 207.5C838.119 208.314 838.305 209.122 838.69 209.84C839.52 211.57 841.07 212.6 845.93 214.7C854.88 218.55 858.71 221.09 861.09 224.7C863.75 228.7 864.34 235.16 862.54 239.94C860.54 245.14 855.64 248.67 848.71 249.84C845.545 250.203 842.347 250.169 839.19 249.74C834.352 248.942 829.895 246.619 826.47 243.11C825.32 241.84 823.08 238.53 823.22 238.29C823.585 238.019 823.969 237.775 824.37 237.56L829 235L832.59 232.92L833.34 234.03C834.606 235.841 836.217 237.383 838.08 238.57C842.08 240.67 847.54 240.38 850.24 237.95C851.147 237.06 851.712 235.879 851.838 234.615C851.964 233.351 851.643 232.082 850.93 231.03C849.93 229.64 847.93 228.47 842.34 226.03C835.89 223.25 833.11 221.53 830.57 218.79C828.984 216.982 827.814 214.849 827.14 212.54C826.638 209.902 826.563 207.201 826.92 204.54C828.25 198.31 832.92 193.96 839.74 192.67C842.898 192.279 846.098 192.367 849.23 192.93V192.91ZM819.89 198.15V203.27H803.66V249.5H792.15V203.26H775.88V198.26C775.829 196.536 775.869 194.81 776 193.09C776.08 193 786 193 798 193H819.83L819.89 198.15Z" fill="#8AADF4"/>
<path d="M1075 143.393L1098 143.402L1113.03 168.36L1128.02 143.404L1151 143.398L1113.15 209.053L1075 143.393Z" fill="#35495E"/>
<path d="M1049.91 143.569L1074.98 143.397L1113.13 209.056L1150.98 143.401L1176.09 143.427L1113.12 251.487L1049.91 143.569Z" fill="#A6DA95"/>
<path d="M689.771 164.334L645.674 138.729C642.893 137.145 639.272 137.145 636.469 138.729L591.901 164.334C589.031 165.985 587 169.088 587 172.407V223.549C587 226.868 589.084 229.972 591.954 231.632L603.729 238.32C609.357 241.092 611.346 241.092 613.907 241.092C622.24 241.092 627 236.053 627 227.264V176.774C627 176.061 626.629 175 625.929 175H620.306C619.594 175 618 176.061 618 176.773V227.263C618 231.159 614.476 235.036 607.89 231.743L595.723 224.73C595.299 224.5 595 224.037 595 223.549V172.407C595 171.925 595.555 171.441 595.982 171.194L640.406 145.633C640.821 145.398 641.431 145.398 641.845 145.633L685.727 171.188C686.147 171.441 685.999 171.91 685.999 172.407V223.549C685.999 224.037 686.182 224.512 685.767 224.747L641.681 250.323C641.303 250.55 640.834 250.55 640.42 250.323L629.113 243.574C628.772 243.376 628.367 243.305 628.04 243.488C624.894 245.271 624.314 245.508 621.363 246.531C620.637 246.784 619.566 247.223 621.773 248.46L636.571 257.214C637.984 258.03 639.586 258.46 641.218 258.46C642.86 258.46 644.468 258.034 645.885 257.214L689.77 231.632C692.64 229.96 694 226.868 694 223.549V172.407C694 169.088 692.64 165.993 689.771 164.334ZM654.91 215.445C643.184 215.445 640.601 212.21 639.74 206.379C639.64 205.751 639.107 205 638.468 205H632.737C632.028 205 631.458 205.86 631.458 206.566C631.458 214.032 635.517 223.078 654.911 223.078C668.95 223.078 676.999 217.623 676.999 207.969C676.999 198.397 670.532 195.885 656.917 194.083C643.155 192.264 641.757 191.345 641.757 188.121C641.757 185.463 642.941 181.918 653.131 181.918C662.236 181.918 665.592 183.872 666.973 190.009C667.091 190.586 667.618 191 668.213 191H673.967C674.321 191 674.659 190.857 674.907 190.604C675.147 190.332 675.274 189.991 675.242 189.625C674.351 179.057 667.33 174.132 653.13 174.132C640.499 174.132 632.964 179.466 632.964 188.407C632.964 198.105 640.461 200.785 652.586 201.984C667.091 203.406 668.219 205.526 668.219 208.379C668.219 213.334 664.241 215.445 654.91 215.445Z" fill="#A6E3A1"/>
<path d="M300.514 134.413C294.903 148.167 291.497 157.176 285.252 170.521C289.08 174.58 293.787 179.29 301.421 184.629C293.214 181.252 287.619 177.87 283.436 174.351C275.443 191.031 262.911 214.782 237.498 260.444C257.466 248.916 272.948 241.803 287.375 239.09C286.757 236.429 286.428 233.539 286.451 230.535L286.467 229.905C286.784 217.109 293.442 207.269 301.329 207.937C309.214 208.604 315.354 219.524 315.037 232.322C314.976 234.732 314.696 237.048 314.221 239.198C328.492 241.99 343.827 249.07 363.529 260.444C359.644 253.292 356.164 246.847 352.852 240.705C347.635 236.662 342.196 231.402 331.098 225.705C338.727 227.688 344.193 229.98 348.451 232.536C314.781 169.846 312.059 161.51 300.514 134.413V134.413V134.413Z" fill="#89DCEB"/>
<path d="M335.985 209.321C308.668 172.246 302.337 142.363 300.732 135.229C315.304 168.838 315.204 169.251 335.985 209.321Z" fill="white" fill-opacity="0.16568"/>
<path d="M300.76 134.906C300.051 136.647 299.381 138.346 298.728 139.952C298.011 141.714 297.314 143.411 296.636 145.06C295.959 146.708 295.272 148.271 294.606 149.86C293.938 151.448 293.318 153.018 292.637 154.598C291.955 156.178 291.207 157.775 290.482 159.397C289.758 161.022 289.002 162.662 288.206 164.383C287.41 166.102 286.575 167.93 285.681 169.799C285.561 170.051 285.437 170.342 285.313 170.598C289.131 174.643 293.84 179.316 301.435 184.629C293.229 181.252 287.651 177.871 283.466 174.352C283.249 174.797 283.076 175.188 282.852 175.643C282.025 177.359 281.136 179.056 280.205 180.937C279.982 181.378 279.819 181.778 279.591 182.228C278.604 184.206 277.57 186.252 276.452 188.443C276.229 188.877 276.003 189.235 275.774 189.674C275.099 190.988 272.938 195.129 270.729 199.337C269.439 201.795 268.427 203.807 266.974 206.537C266.562 207.32 265.715 208.89 265.497 209.305C281.497 200.3 298.759 187.218 330.113 198.414C328.544 195.44 327.037 192.665 325.682 190.044C324.328 187.421 323.099 184.981 321.929 182.66C320.759 180.338 319.678 178.148 318.666 176.075C317.656 174.001 316.718 172.044 315.836 170.167C314.954 168.29 314.093 166.484 313.314 164.752C312.532 163.021 311.805 161.345 311.098 159.706C310.391 158.066 309.73 156.441 309.066 154.844C308.404 153.246 307.743 151.714 307.097 150.106C306.817 149.406 306.579 148.661 306.297 147.952C304.549 143.846 302.833 139.777 300.76 134.906V134.906V134.906Z" fill="url(#paint0_linear_1_6)"/>
<path d="M471 209.4C477.296 209.4 482.4 204.296 482.4 198C482.4 191.704 477.296 186.6 471 186.6C464.704 186.6 459.6 191.704 459.6 198C459.6 204.296 464.704 209.4 471 209.4Z" fill="#7DC4E4"/>
<path d="M514.3 179.2C512.1 178.4 509.8 177.6 507.4 176.9C508 174.5 508.5 172.1 508.9 169.8C511 156.6 508.7 147.3 502.3 143.7C500.4 142.6 498.3 142.1 495.9 142.1C488.9 142.1 480 147.3 471 156C462 147.3 453.1 142.1 446.1 142.1C443.7 142.1 441.6 142.6 439.7 143.7C433.3 147.4 431 156.7 433.1 169.8C433.5 172.1 434 174.5 434.6 176.9C432.2 177.6 429.9 178.3 427.7 179.2C415.2 184 408.4 190.6 408.4 198C408.4 205.4 415.3 212 427.7 216.8C429.9 217.6 432.2 218.4 434.6 219.1C434 221.5 433.5 223.9 433.1 226.2C431 239.4 433.3 248.7 439.7 252.3C441.6 253.4 443.7 253.9 446.1 253.9C453.2 253.9 462.1 248.7 471 240C480 248.7 488.9 253.9 495.9 253.9C498.3 253.9 500.4 253.4 502.3 252.3C508.7 248.6 511 239.3 508.9 226.2C508.5 223.9 508 221.5 507.4 219.1C509.8 218.4 512.1 217.7 514.3 216.8C526.8 212 533.6 205.4 533.6 198C533.6 190.6 526.8 184 514.3 179.2ZM499.5 148.7C503.6 151.1 505 158.5 503.3 169C503 171.1 502.5 173.3 501.9 175.6C496.7 174.4 491.2 173.6 485.4 173.1C482 168.3 478.5 164 475 160.1C482.4 152.8 489.9 147.8 496 147.8C497.3 147.8 498.5 148.1 499.5 148.7ZM488.3 208C486.5 211.2 484.4 214.4 482.2 217.6C478.5 217.9 474.8 218 471 218C467.1 218 463.4 217.9 459.8 217.6C457.6 214.4 455.6 211.2 453.8 208C451.9 204.7 450.1 201.3 448.5 198C450.1 194.7 451.9 191.3 453.8 188C455.6 184.8 457.7 181.6 459.9 178.4C463.6 178.1 467.3 178 471.1 178C475 178 478.7 178.1 482.3 178.4C484.5 181.6 486.5 184.8 488.3 188C490.2 191.3 492 194.7 493.6 198C491.9 201.3 490.2 204.6 488.3 208ZM496.6 204.7C498.1 208.2 499.3 211.6 500.4 215C497 215.8 493.4 216.4 489.6 216.9C490.8 215 492.1 213 493.2 210.9C494.4 208.8 495.5 206.7 496.6 204.7ZM471 231.8C468.6 229.2 466.3 226.4 464.1 223.5C466.4 223.6 468.7 223.7 471 223.7C473.3 223.7 475.6 223.6 477.9 223.5C475.7 226.4 473.4 229.2 471 231.8ZM452.4 216.8C448.6 216.3 445 215.7 441.6 214.9C442.7 211.6 443.9 208.1 445.4 204.6C446.5 206.6 447.6 208.7 448.8 210.7C450 212.9 451.2 214.8 452.4 216.8ZM445.4 191.3C443.9 187.8 442.7 184.4 441.6 181C445 180.2 448.6 179.6 452.4 179.1C451.2 181 449.9 183 448.8 185.1C447.6 187.2 446.5 189.3 445.4 191.3ZM471 164.2C473.4 166.8 475.7 169.6 477.9 172.5C475.6 172.4 473.3 172.3 471 172.3C468.7 172.3 466.4 172.4 464.1 172.5C466.3 169.6 468.6 166.8 471 164.2ZM493.2 185.2L489.6 179.2C493.4 179.7 497 180.3 500.4 181.1C499.3 184.4 498.1 187.9 496.6 191.4C495.5 189.3 494.4 187.2 493.2 185.2ZM438.7 169C437 158.5 438.4 151.1 442.5 148.7C443.5 148.1 444.7 147.8 446 147.8C452 147.8 459.5 152.7 467 160.1C463.5 163.9 460 168.3 456.6 173.1C450.8 173.6 445.3 174.5 440.1 175.6C439.5 173.3 439.1 171.1 438.7 169ZM414 198C414 193.3 419.7 188.3 429.7 184.6C431.7 183.8 433.9 183.1 436.1 182.5C437.7 187.5 439.7 192.8 442.1 198.1C439.7 203.4 437.6 208.6 436.1 213.6C422.3 209.6 414 203.6 414 198ZM442.5 247.3C438.4 244.9 437 237.5 438.7 227C439 224.9 439.5 222.7 440.1 220.4C445.3 221.6 450.8 222.4 456.6 222.9C460 227.7 463.5 232 467 235.9C459.6 243.2 452.1 248.2 446 248.2C444.7 248.2 443.5 247.9 442.5 247.3ZM503.3 227C505 237.5 503.6 244.9 499.5 247.3C498.5 247.9 497.3 248.2 496 248.2C490 248.2 482.5 243.3 475 235.9C478.5 232.1 482 227.7 485.4 222.9C491.2 222.4 496.7 221.5 501.9 220.4C502.5 222.7 502.9 224.9 503.3 227ZM512.3 211.4C510.3 212.2 508.1 212.9 505.9 213.5C504.3 208.5 502.3 203.2 499.9 197.9C502.3 192.6 504.4 187.4 505.9 182.4C519.7 186.4 528 192.4 528 198C528 202.7 522.2 207.7 512.3 211.4Z" fill="#7DC4E4"/>
<path d="M176.01 162.64L138.28 140.24C136.03 138.91 133.51 138.24 131 138.24C128.49 138.24 125.97 138.91 123.72 140.25L85.98 162.65C81.48 165.32 78.7 170.26 78.7 175.61V220.41C78.7 225.76 81.47 230.7 85.98 233.37L123.71 255.77C125.96 257.11 128.47 257.77 130.99 257.77C133.5 257.77 136.02 257.1 138.27 255.77L176.01 233.37C180.51 230.7 183.29 225.75 183.29 220.41V175.6C183.29 170.26 180.52 165.31 176.01 162.64ZM146.79 232.59L146.85 235.81C146.85 236.2 146.6 236.64 146.3 236.8L144.39 237.9C144.09 238.05 143.83 237.87 143.83 237.48L143.8 234.31C142.17 234.99 140.51 235.15 139.46 234.73C139.26 234.65 139.17 234.36 139.25 234.02L139.94 231.11C140 230.88 140.12 230.65 140.28 230.51C140.34 230.45 140.4 230.41 140.46 230.38C140.57 230.32 140.68 230.31 140.77 230.35C141.91 230.73 143.36 230.55 144.76 229.85C146.54 228.95 147.73 227.13 147.71 225.33C147.69 223.69 146.81 223.02 144.66 223C141.92 223.01 139.36 222.47 139.32 218.43C139.29 215.11 141.01 211.65 143.75 209.47L143.72 206.22C143.72 205.82 143.96 205.38 144.27 205.22L146.12 204.04C146.42 203.89 146.68 204.08 146.68 204.47L146.71 207.72C148.07 207.18 149.25 207.03 150.32 207.28C150.55 207.34 150.66 207.66 150.56 208.03L149.84 210.91C149.78 211.13 149.66 211.35 149.51 211.49C149.454 211.546 149.39 211.593 149.32 211.63C149.22 211.68 149.13 211.69 149.04 211.68C148.55 211.57 147.39 211.32 145.56 212.24C143.64 213.21 142.97 214.88 142.98 216.12C143 217.6 143.75 218.05 146.37 218.09C149.86 218.15 151.36 219.67 151.4 223.18C151.45 226.62 149.61 230.33 146.79 232.59ZM173.13 172.09L137.43 194.14C132.98 196.74 129.7 199.66 129.69 205.03V249.02C129.69 252.23 130.99 254.31 132.98 254.92C132.33 255.03 131.66 255.11 131 255.11C128.91 255.11 126.85 254.54 125.04 253.47L87.31 231.07C83.62 228.88 81.33 224.79 81.33 220.4V175.6C81.33 171.21 83.62 167.12 87.31 164.93L125.05 142.53C126.86 141.46 128.92 140.89 131.01 140.89C133.1 140.89 135.16 141.46 136.97 142.53L174.71 164.93C177.82 166.78 179.92 169.97 180.51 173.56C179.24 170.89 176.42 170.17 173.13 172.09Z" fill="#181926"/>
<path d="M166.12 224.73L156.72 230.35C156.47 230.5 156.29 230.66 156.29 230.96V233.42C156.29 233.72 156.49 233.85 156.74 233.7L166.28 227.9C166.53 227.75 166.57 227.48 166.57 227.18V225.01C166.57 224.71 166.37 224.59 166.12 224.73Z" fill="#A6DA95"/>
<path d="M1343.8 186.1C1339.5 183.6 1333.8 183.3 1329 184.7C1328.4 179.5 1325 175 1321 171.8L1319.4 170.5L1318 172.1C1315.3 175.2 1314.5 180.4 1314.9 184.4C1315.2 187.3 1316.1 190.3 1317.9 192.7C1316.5 193.5 1315 194.6 1313.6 195.1C1310.8 196.1 1307.7 197.1 1304.7 197.1H1298V183H1285V158H1270V170H1245V183H1232V197H1220.8L1220.6 198.5C1220.1 204.9 1220.9 211.1 1223.6 217L1224.7 219.2L1224.8 219.4C1232.7 232.8 1246.5 238.4 1261.6 238.4C1290.8 238.4 1314.9 225.3 1325.9 197.8C1333.3 198.2 1340.9 196 1344.5 188.9L1345.4 187.1L1343.8 186.1ZM1247 173H1257V184H1247V173ZM1260.1 217.2C1260.1 218.9 1258.7 220.3 1257 220.3C1255.3 220.3 1253.9 218.9 1253.9 217.2C1253.9 215.5 1255.3 214.1 1257 214.1C1258.7 214.2 1260.1 215.5 1260.1 217.2ZM1247 186H1257V197H1247V186ZM1234 186H1245V197H1234V186ZM1261.7 236.2C1245.9 236.1 1237.4 230.8 1230.4 223.8C1232.5 223.9 1234.5 224 1236.3 224C1237.9 224 1239.5 224 1241 223.9C1244.9 223.7 1248.3 223.2 1251.1 222.4C1253.4 227.7 1257.6 232.6 1265.1 236.2H1261.7ZM1270 197H1259V186H1270V197ZM1270 184H1259V173H1270V184ZM1283 197H1272V186H1283V197ZM1283 184H1272V173H1283V184ZM1283 171H1272V160H1283V171ZM1296 197H1285V186H1296V197ZM1257.8 215.2C1257.6 215.1 1257.3 215 1257 215C1255.8 215 1254.8 216 1254.8 217.2C1254.8 218.4 1255.8 219.4 1257 219.4C1258.2 219.4 1259.2 218.4 1259.2 217.2C1259.2 216.9 1259.1 216.6 1259 216.4C1258.8 216.7 1258.6 216.9 1258.2 216.9C1257.7 216.9 1257.3 216.5 1257.3 216C1257.4 215.6 1257.6 215.3 1257.8 215.2Z" fill="#74C7EC"/>
<path fill-rule="evenodd" clip-rule="evenodd" d="M981.085 137.21C982.135 138.509 982.67 140.261 983.74 143.766L1007.13 220.343C998.345 215.799 988.915 212.618 979.167 210.908L963.937 159.617C963.816 159.208 963.565 158.849 963.222 158.594C962.879 158.339 962.462 158.201 962.034 158.202C961.605 158.203 961.189 158.342 960.847 158.598C960.504 158.854 960.254 159.214 960.134 159.623L945.09 210.882C935.297 212.584 925.824 215.771 917 220.332L940.505 143.749C941.579 140.249 942.116 138.5 943.165 137.203C944.092 136.059 945.298 135.17 946.667 134.621C948.218 134 950.054 134 953.726 134H970.514C974.19 134 976.029 134 977.581 134.623C978.952 135.172 980.158 136.063 981.085 137.21Z" fill="#EFF1F5"/>
<path fill-rule="evenodd" clip-rule="evenodd" d="M983.632 224.226C979.842 227.483 972.279 229.704 963.567 229.704C952.873 229.704 943.911 226.358 941.533 221.858C940.682 224.437 940.492 227.389 940.492 229.275C940.492 229.275 939.932 238.534 946.338 244.974C946.338 241.63 949.035 238.919 952.362 238.919C958.064 238.919 958.058 243.92 958.053 247.977L958.052 248.339C958.052 254.496 961.796 259.775 967.121 262C966.326 260.356 965.88 258.509 965.88 256.558C965.88 250.685 969.31 248.499 973.296 245.957C976.468 243.935 979.993 241.688 982.421 237.182C983.689 234.83 984.408 232.137 984.408 229.275C984.408 227.514 984.136 225.818 983.632 224.226Z" fill="#ED8796"/>
<path d="M1461.6 214.5C1461.8 214.7 1462.2 215 1462.5 215H1467.8C1468.1 215 1468.5 214.7 1468.7 214.5L1470.1 213C1470.3 212.8 1470.4 212.6 1470.4 212.4L1471.9 207.3C1472 206.8 1471.9 206.3 1471.6 206L1470.5 205.1C1470.3 204.9 1469.9 205 1469.6 205H1464.8L1464.6 204.8L1464.5 204.7C1464.3 204.7 1464.1 204.6 1463.9 204.8L1462 206C1461.8 206 1461.7 206.5 1461.6 206.7L1460 211.6C1459.8 212.1 1459.9 212.7 1460.3 213.1L1461.6 214.5ZM1462.4 240.9L1462 241H1460.8L1468 219.9C1468.2 219.2 1467.9 218.4 1467.2 218.2L1466.8 218.1H1454.7C1454.2 218.2 1453.8 218.6 1453.7 219.1L1453 221.6C1452.8 222.3 1453.3 222.9 1454 223.1L1454.3 223H1456.1L1448.8 243.9C1448.6 244.6 1448.9 245.5 1449.6 245.8L1450 246.1H1461.2C1461.8 246.1 1462.3 245.6 1462.5 245L1463.2 242.6C1463.5 241.9 1463.1 241.1 1462.4 240.9ZM1515.5 221.2L1513.6 218.7V218.6C1513.3 218.3 1513 218 1512.6 218H1505.4C1505 218 1504.7 218.4 1504.4 218.6L1502.4 221H1499.3L1497.2 218.6V218.5C1497 218.2 1496.6 218 1496.2 218H1492.2L1512.4 197.8L1489.8 175.4L1510 154.6V145.6L1507.2 142H1466.3L1463 145.5V148.4L1451.7 137L1444 144.5L1441.6 142H1401.2L1398 145.7V155.1L1401 158H1404V184.1L1390 198.1L1404 212.1V244.1L1409.2 247H1420.8L1429.9 237.5L1451.5 259.1L1466 244.6C1466.1 245 1466.4 245.1 1466.9 245.3L1467.3 245.1H1476.7C1477.3 245.1 1477.8 245 1477.9 244.5L1478.6 242.5C1478.8 241.8 1478.5 241.2 1477.8 241L1477.4 241.1H1477L1480.4 230.4L1482.7 228.1H1487.7L1482.7 244C1482.5 244.7 1482.9 245.1 1483.6 245.4L1484 245.2H1493.1C1493.6 245.2 1494.1 245.1 1494.3 244.6L1495.1 242.8C1495.4 242.1 1495 241.5 1494.4 241.2C1494.3 241.1 1494.1 241.2 1493.9 241.2H1493.5L1497.7 228.2H1503.8L1498.7 244.1C1498.5 244.8 1498.9 245.2 1499.6 245.4L1500 245.1H1510C1510.5 245.1 1511 245 1511.2 244.5L1512 242.5C1512.3 241.8 1511.9 241.2 1511.2 241C1511.1 240.9 1510.9 241.1 1510.7 241.1H1510L1515.6 222.6C1515.8 222.1 1515.7 221.5 1515.5 221.2ZM1451.7 138.9L1463 150.2V154.9L1466.4 159H1468L1439 187V159H1442.3L1445 154.8V145.9L1444.8 145.6L1451.7 138.9ZM1391.9 198.1L1404 186V210.2L1391.9 198.1ZM1430.8 236.4L1489.2 176.4L1510.6 197.9L1490.4 218.1H1490.3C1490 218.2 1489.8 218.4 1489.6 218.6L1487.5 221H1484.6L1482.4 218.6C1482.2 218.3 1481.8 218 1481.4 218H1472.6C1472 218 1471.5 218.4 1471.3 219L1470.5 221.5C1470.3 222.2 1470.6 222.8 1471.3 223.1H1472.8L1466.4 242L1451.3 257.2L1430.8 236.4Z" fill="#A6DA95"/>
<defs>
<linearGradient id="paint0_linear_1_6" x1="300.802" y1="154.937" x2="279.499" y2="191.645" gradientUnits="userSpaceOnUse">
<stop stop-color="white" stop-opacity="0"/>
<stop offset="1" stop-color="white" stop-opacity="0.27451"/>
</linearGradient>
</defs>
</svg>
